<?xml version="1.0" encoding="UTF-8"?>
<svg id="Layer_2" data-name="Layer 2" xmlns="http://www.w3.org/2000/svg" viewBox="0 0 69.11 19.17">
  <defs>
    <style>
      .cls-1 {
        fill: #6b2e4e;
      }

      .cls-1, .cls-2, .cls-3, .cls-4 {
        stroke-width: 0px;
      }

      .cls-2 {
        fill: #1db18a;
      }

      .cls-3 {
        fill: #892158;
      }

      .cls-4 {
        fill: #101111;
      }
    </style>
  </defs>
  <g id="Layer_1-2" data-name="Layer 1">
    <g>
      <g>
        <path class="cls-2" d="m69,12.75c-1.07-1.43-2.14-2.86-3.22-4.29-.12-.15-.13-.25,0-.42,1.02-1.34,2.03-2.7,3.05-4.05.07-.1.16-.2.1-.33-.06-.14-.19-.14-.32-.14-.72,0-1.45,0-2.17,0-.17,0-.27.06-.37.2-.55.79-1.11,1.58-1.67,2.37-.16.23-.17.23-.34,0-.55-.78-1.11-1.57-1.66-2.35-.08-.11-.15-.21-.31-.21-.77,0-1.53,0-2.3,0-.25,0-.34.21-.19.42.08.11.16.21.24.31.96,1.28,1.92,2.57,2.89,3.85.09.11.09.19,0,.3-.14.17-.26.35-.39.52-.96,1.29-1.92,2.57-2.89,3.86-.08.11-.1.21-.06.32.05.13.18.13.3.13.69,0,1.38-.01,2.07,0,.24,0,.38-.08.51-.27.59-.85,1.19-1.69,1.78-2.54.12-.18.18-.21.32,0,.6.87,1.22,1.73,1.83,2.6.1.15.22.22.41.21.35-.02.7,0,1.05,0,.37,0,.73,0,1.1,0,.12,0,.24,0,.3-.13.06-.13,0-.23-.08-.34Z"/>
        <path class="cls-2" d="m59.09,6.3c-.88-1.62-2.24-2.52-4.06-2.75-.8-.1-1.6-.02-2.23-.04-.87,0-1.58,0-2.29,0-.28,0-.35.08-.36.35,0,.52,0,1.05,0,1.57,0,.3.07.37.36.37,1.26,0,2.51,0,3.77,0,.34,0,.67.05,1,.15,1.12.34,1.94,1.62,1.75,2.75-.23,1.39-1.4,2.25-2.66,2.24-1.29,0-2.58,0-3.87,0-.29,0-.35.06-.35.35,0,.52,0,1.03,0,1.55,0,.33.06.39.39.39,1.24,0,2.48,0,3.72,0,1.35.01,2.55-.37,3.59-1.24,1.14-.96,1.73-2.2,1.74-3.68,0-.7-.16-1.38-.5-2Z"/>
      </g>
      <path class="cls-4" d="m26.82,16.88c0-.42,0-.83,0-1.25,0-.17.08-.26.22-.26.49-.02,1-.04,1.47.12.51.17.79.57.85,1.08.07.54.02,1.07-.44,1.47-.31.27-.68.33-1.06.34-.26,0-.52,0-.77,0-.19,0-.28-.07-.27-.28.02-.41,0-.81,0-1.22Zm.42-.01c0,.32,0,.65,0,.97,0,.08-.02.17.11.17.23,0,.47.02.7,0,.32-.05.63-.16.76-.5.18-.47.19-.93-.08-1.38-.04-.06-.09-.12-.15-.16-.38-.27-.82-.19-1.24-.2-.12,0-.09.09-.09.16,0,.32,0,.63,0,.95Z"/>
      <path class="cls-4" d="m34.72,18.02c-.47.39-1.01.39-1.36,0-.36-.39-.34-1.15.04-1.52.35-.34.9-.33,1.3.05.03-.16.08-.32.28-.29.18.03.19.18.19.33,0,.53,0,1.06,0,1.59,0,.5-.22,1-.99.98-.27,0-.52-.02-.76-.15-.09-.05-.18-.12-.17-.22.01-.13.07-.22.23-.14.2.1.4.19.63.19.45,0,.61-.16.61-.61,0-.06,0-.13,0-.2Zm0-.73c.04-.38-.18-.6-.39-.67-.3-.09-.59.04-.72.32-.14.31-.05.76.17.92.2.14.42.15.62.05.26-.12.33-.35.31-.61Z"/>
      <path class="cls-4" d="m53.31,18.2c.02.12-.06.18-.14.2-.11.03-.2-.02-.24-.13-.07-.15-.13-.3-.19-.45-.05-.12-.11-.18-.25-.18-.41.01-.81.01-1.22,0-.14,0-.2.05-.25.18-.05.15-.12.3-.19.45-.06.12-.15.18-.28.11-.12-.06-.15-.15-.09-.29.39-.85.77-1.7,1.16-2.55.05-.11.13-.19.26-.18.12,0,.19.06.24.17.39.85.78,1.69,1.17,2.54.02.04.01.08.02.12Zm-.81-.9c-.21-.47-.41-.92-.63-1.4-.11.26-.22.49-.32.72-.1.22-.2.45-.3.68h1.24Z"/>
      <path class="cls-4" d="m66.39,16.58c0-.33,0-.61,0-.89,0-.17,0-.33.23-.33.21,0,.22.16.22.32,0,.8,0,1.59,0,2.39,0,.15,0,.3-.18.33-.21.03-.25-.13-.28-.28-.54.56-1.39.29-1.55-.5-.08-.41-.03-.79.27-1.11.35-.36.88-.35,1.29.07Zm0,.76c0-.07,0-.13,0-.2-.02-.26-.22-.5-.44-.52-.35-.05-.63.11-.69.44-.07.38-.04.84.36.97.04.01.08.03.12.03.41.06.7-.27.65-.72Z"/>
      <path class="cls-4" d="m32.2,18.12c-.25.33-.57.36-.91.24-.26-.09-.44-.4-.41-.65.04-.29.24-.47.58-.49.21-.01.42-.08.64-.05.1.01.12-.02.13-.12.02-.36-.26-.53-.68-.41-.12.04-.24.09-.36.15-.09.04-.15.05-.22-.04-.07-.1-.02-.17.04-.24.04-.04.09-.07.14-.09.27-.13.55-.17.85-.14.34.03.57.25.62.6.07.44.02.88.03,1.32,0,.13-.07.22-.21.23-.19,0-.2-.15-.24-.29Zm-.47-.04c.16.02.3-.06.4-.21.09-.12.13-.27.08-.4-.05-.13-.2-.04-.31-.05-.09,0-.18.01-.27.03-.2.03-.35.12-.31.36.04.21.19.28.4.27Z"/>
      <path class="cls-4" d="m57.03,18.15c-.26.28-.56.33-.9.2-.3-.12-.42-.34-.39-.69.02-.25.16-.38.48-.44.19-.03.38-.03.56-.06.09-.02.27.11.27-.13,0-.25-.09-.39-.29-.41-.24-.02-.47.02-.69.14-.08.05-.2.12-.26,0-.05-.12-.04-.23.11-.31.31-.16.63-.21.96-.17.38.05.59.33.6.76,0,.35,0,.7,0,1.05,0,.13.01.28-.16.32-.19.05-.23-.1-.3-.25Zm-.45-.08c.21.02.35-.12.44-.32.11-.24.03-.35-.22-.34-.11,0-.21.01-.32.03-.2.03-.36.11-.33.35.03.23.19.28.43.28Z"/>
      <path class="cls-4" d="m68.67,18.14c-.3.3-.64.37-.98.18-.26-.14-.38-.39-.32-.69.05-.29.24-.37.54-.41.21-.03.42-.09.64-.06.11.02.14-.03.14-.14,0-.44-.26-.45-.67-.39-.12.02-.23.08-.34.14-.09.04-.18.08-.24-.02-.05-.09-.04-.19.05-.27.27-.23.98-.29,1.28-.11.22.13.31.34.32.58.01.38,0,.76,0,1.14,0,.14.03.3-.18.32-.2.02-.21-.14-.26-.27Zm-.24-.71c-.17-.01-.31,0-.43.05-.12.04-.21.11-.22.26,0,.14.05.25.17.3.2.07.4.07.57-.09.13-.13.2-.3.14-.47-.04-.12-.19-.03-.24-.05Z"/>
      <path class="cls-4" d="m63.92,18.1c-.29.33-.6.38-.95.25-.3-.12-.42-.36-.38-.72.03-.29.27-.35.49-.41.18-.04.38-.03.56-.06.09-.02.25.1.26-.12,0-.2-.02-.38-.25-.42-.15-.02-.31-.04-.46.03-.1.05-.2.07-.3.12-.09.04-.18.08-.23-.03-.04-.09-.04-.19.05-.27.26-.21.97-.28,1.26-.12.26.14.35.39.36.66,0,.35,0,.7,0,1.05,0,.15.03.32-.18.35-.19.03-.23-.11-.23-.3Zm-.03-.55c.04-.11-.02-.15-.15-.14-.17,0-.34.01-.51.06-.14.04-.23.13-.23.28,0,.14.07.25.21.31.33.13.69-.11.69-.5Z"/>
      <path class="cls-4" d="m48.48,18.1c-.28.33-.59.38-.93.26-.31-.11-.44-.36-.4-.73.03-.29.27-.35.49-.4.17-.04.36-.03.54-.06.1-.02.28.1.27-.15,0-.26-.09-.38-.3-.39-.24-.02-.46.04-.67.14-.09.04-.21.13-.27-.02-.05-.12-.02-.23.13-.3.32-.15.64-.21.99-.15.35.07.55.33.56.71,0,.37,0,.75,0,1.12,0,.14-.02.27-.19.29-.18.02-.21-.11-.23-.31Zm-.28-.7c-.14.02-.28.04-.41.06-.14.03-.22.12-.23.26,0,.12.04.24.17.3.26.13.64-.02.72-.3.07-.24,0-.32-.25-.32Z"/>
      <path class="cls-4" d="m40.12,17.35c0,.66-.38,1.06-1,1.06-.62,0-1.04-.43-1.04-1.07,0-.65.4-1.08,1.03-1.08.64,0,1.02.4,1.02,1.08Zm-1.6.05c.01.2.03.48.33.62.22.1.44.09.63-.06.21-.17.24-.43.22-.67-.04-.43-.22-.64-.5-.66-.44-.03-.68.21-.68.78Z"/>
      <path class="cls-4" d="m58.52,16.58c.13-.18.3-.27.49-.31.53-.1.9.19.92.73.01.38,0,.76,0,1.15,0,.15-.05.26-.23.26-.17,0-.21-.12-.21-.27,0-.33,0-.66,0-1,0-.37-.12-.52-.41-.53-.34,0-.58.2-.59.53-.01.32,0,.65,0,.97,0,.16-.02.29-.21.29-.2,0-.21-.14-.21-.29,0-.51,0-1.01,0-1.52,0-.14-.02-.3.18-.32.2-.02.24.13.26.31Z"/>
      <path class="cls-4" d="m36.18,16.6c.16-.19.34-.3.55-.33.56-.08.89.21.89.78,0,.37,0,.73,0,1.1,0,.14-.03.25-.19.26-.18.02-.24-.1-.24-.25,0-.37-.01-.75-.01-1.12,0-.2-.07-.36-.27-.42-.21-.06-.5.04-.61.22-.08.13-.12.27-.11.42,0,.3,0,.6,0,.9,0,.15-.05.24-.21.24-.16,0-.21-.1-.21-.25,0-.52,0-1.05,0-1.57,0-.16.01-.31.22-.32.2,0,.2.15.2.33Z"/>
      <path class="cls-4" d="m60.94,18.06c.38,0,.73,0,1.08,0,.1,0,.21,0,.22.13.02.15-.1.19-.21.19-.47,0-.95,0-1.42,0-.08,0-.17-.01-.21-.11-.04-.1,0-.19.08-.27.37-.43.74-.87,1.13-1.34-.31,0-.58,0-.85,0-.08,0-.16,0-.24-.02-.09-.03-.14-.07-.13-.17,0-.1.06-.15.16-.15.48,0,.97,0,1.45,0,.09,0,.14.06.17.12.06.11-.02.19-.08.26-.31.38-.63.75-.95,1.12-.06.07-.12.15-.2.25Z"/>
      <path class="cls-4" d="m41.34,18.41c-.3.01-.53-.04-.74-.19-.1-.07-.18-.16-.11-.29.08-.13.19-.07.28-.02.21.12.44.18.68.15.15-.02.28-.07.31-.23.03-.17-.12-.22-.24-.27-.21-.08-.43-.1-.64-.19-.22-.09-.34-.25-.34-.46,0-.21.09-.4.29-.51.32-.19.86-.18,1.16.03.12.08.17.2.1.32-.08.13-.19.05-.28-.01-.18-.12-.38-.14-.59-.12-.14.01-.23.08-.26.22-.03.15.04.24.18.28.16.05.33.09.49.14.46.14.57.28.52.67-.03.25-.34.47-.69.49-.06,0-.12,0-.13,0Z"/>
      <path class="cls-4" d="m46.06,18.41c-.48,0-.81-.23-.96-.67-.16-.48-.02-1.02.36-1.3.3-.23.87-.24,1.2-.02.06.04.12.09.15.16.02.07.03.15-.04.21-.06.05-.12.03-.18,0-.13-.05-.23-.15-.38-.17-.46-.05-.8.32-.73.79.1.64.48.82,1.06.5.1-.05.19-.09.26.01.07.11.03.21-.07.28-.2.15-.42.21-.67.21Z"/>
      <path class="cls-4" d="m43.51,18.41c-.49,0-.75-.27-.75-.76,0-.27,0-.55,0-.82,0-.12-.02-.18-.16-.17-.12,0-.27-.01-.28-.17,0-.17.14-.19.27-.17.15.02.19-.04.18-.18-.01-.09,0-.18,0-.27,0-.13.08-.19.21-.2.13,0,.23.07.22.18-.06.39.08.54.47.47.08-.02.13.07.14.15,0,.07-.02.13-.1.15-.05.01-.11.04-.16.04-.34.03-.34.03-.34.36,0,.22,0,.45,0,.67,0,.22.11.35.34.37.12,0,.28-.01.27.17,0,.19-.17.17-.3.17Z"/>
      <path class="cls-4" d="m54.44,17.84c.22-.48.41-.92.61-1.35.06-.13.11-.29.3-.2.19.09.12.24.05.38-.24.5-.48,1-.72,1.51-.06.12-.12.22-.27.22-.13,0-.2-.1-.25-.21-.25-.53-.49-1.05-.74-1.58-.06-.14-.09-.25.07-.33.17-.08.25.03.3.16.2.45.4.89.62,1.39Z"/>
      <path class="cls-4" d="m29.93,17.33c0-.27,0-.55,0-.82,0-.16.08-.23.22-.24.15,0,.23.09.23.23,0,.56,0,1.11,0,1.67,0,.14-.07.24-.22.24-.17,0-.23-.1-.22-.26,0-.27,0-.55,0-.82Z"/>
      <path class="cls-4" d="m44.56,17.35c0,.27,0,.55,0,.82,0,.15-.06.24-.22.24-.16,0-.23-.11-.23-.23,0-.56,0-1.11,0-1.67,0-.15.08-.25.25-.24.15.01.2.11.2.26,0,.27,0,.55,0,.82Z"/>
      <path class="cls-1" d="m46.85,13.07c-.06-.07-.03-.16-.03-.24,0-2.98,0-5.96,0-8.94,0-.08-.02-.17.04-.24,0,.08.02.16.02.25,0,2.97,0,5.94,0,8.91,0,.09.01.18-.03.27Z"/>
      <path class="cls-4" d="m39.87,15.38s-.01.06-.04.09c-.22.19-.43.38-.65.57-.05.04-.09.03-.13,0-.05-.05-.05-.11-.02-.16.17-.22.34-.44.52-.66.05-.07.14-.06.2-.03.06.03.12.09.11.2Z"/>
      <path class="cls-3" d="m4.46,11.08c.06-.08.15-.04.23-.05,1.64,0,3.27,0,4.91,0,.08,0,.17-.03.23.05-1.79,0-3.58,0-5.37,0Z"/>
      <path class="cls-4" d="m30.13,15.37c.18,0,.29.08.29.24,0,.16-.11.25-.27.25-.16,0-.26-.08-.27-.25,0-.18.1-.25.25-.25Z"/>
      <path class="cls-4" d="m44.61,15.67c-.03.13-.13.21-.29.2-.16-.01-.26-.13-.25-.28.02-.17.15-.23.32-.22.16.02.23.11.22.3Z"/>
      <path class="cls-3" d="m28.98,13.18c1,0,2,0,3,0-.05.06-.12.04-.18.04-.88,0-1.75,0-2.63,0-.06,0-.13.02-.18-.04Z"/>
      <path class="cls-3" d="m24.42,13.43c.39,0,.78,0,1.17,0-.39.08-.78.08-1.17,0Z"/>
      <g>
        <path class="cls-3" d="m34.91,3.35c-.14.01-.28.02-.42.05-1.06.2-1.88.73-2.41,1.69-.05.08-.06.19-.18.25-.04-.41-.09-.81-.13-1.21-.07-.72-.05-.63-.65-.63-2.31,0-4.61,0-6.92,0-.23,0-.31-.06-.31-.3,0-.64.03-1.28-.02-1.91,0-.1-.05-.14-.15-.14-.07-.06-.16-.04-.24-.04-.81,0-1.61,0-2.42,0-.37,0-.43.07-.43.44,0,2.56,0,5.11,0,7.67,0,.35.03.69.09,1.04.32,1.85,1.95,3.08,3.69,3.17h1.17c.36,0,.7-.09,1.04-.2.21-.07.29-.19.29-.4,0-.64,0-1.28,0-1.92,0-.3-.11-.38-.41-.3-.38.1-.77.19-1.17.17-.66-.03-1.18-.45-1.35-1.08-.06-.24-.07-.48-.07-.72,0-.87.02-1.75-.01-2.62-.01-.29.08-.31.31-.31.91,0,1.81,0,2.72,0,.11,0,.21,0,.3-.08.52-.53,1.04-1.05,1.56-1.58.01,0,.02,0,.03,0,0,.09,0,.18,0,.27,0,2.7,0,5.39,0,8.09,0,.1-.03.22.04.31.02.06.06.08.11.11,1,0,2,0,3,0,.02-.02.04-.04.06-.05.11-.09.08-.21.08-.32,0-1.22,0-2.44,0-3.66,0-.56.09-1.1.37-1.6.51-.89,1.35-1.21,2.31-1.3.14-.01.29.02.36-.15.03-.86.02-1.73,0-2.59-.04-.13-.13-.16-.25-.15Z"/>
        <path class="cls-3" d="m12.21,8.61c-1.4-2.77-2.8-5.54-4.2-8.32-.06-.12-.11-.24-.26-.27-.39-.01-.77-.06-1.15.03-.13,0-.16.1-.2.19-1.23,2.43-2.46,4.86-3.69,7.3-.87,1.72-1.73,3.43-2.61,5.14-.17.32-.14.54.31.53.9-.03,1.8-.01,2.7,0,.2,0,.32-.07.4-.25.26-.56.53-1.12.8-1.68.04-.08.06-.17.16-.21.06-.08.15-.04.23-.05,1.64,0,3.27,0,4.91,0,.08,0,.17-.03.23.05.12,0,.18.06.24.18.26.57.53,1.13.8,1.7.08.18.19.26.4.26.92,0,1.85,0,2.77,0,.35,0,.43-.13.28-.44-.7-1.38-1.4-2.77-2.1-4.15Zm-6.08-1.23c.34-.73.69-1.45,1.05-2.23.56,1.2,1.1,2.36,1.64,3.52-1.09,0-2.19,0-3.28,0,.15-.45.38-.87.58-1.3Zm2.59,1.35s.06,0,.08-.02c-.02.02-.05.02-.08.02Z"/>
        <path class="cls-3" d="m46.81,12.83c0-2.98,0-5.96,0-8.94,0-.08-.03-.17.04-.24-.05-.14-.17-.15-.28-.15-.76,0-1.51,0-2.27,0-.23,0-.32.1-.34.33-.02.27-.02.55-.13.85-.17-.25-.34-.46-.55-.62-.95-.71-2.02-.95-3.18-.77-1.42.21-2.53.93-3.37,2.07-.56.76-.86,1.63-.94,2.57,0,.28,0,.56,0,.85.03.23.05.46.1.69.51,2.4,2.94,4.42,5.75,3.9.79-.15,1.5-.45,2.03-1.1.06-.07.07-.19.21-.22.03.28.07.56.09.84.02.21.1.31.33.31.76,0,1.52,0,2.27,0,.12,0,.24,0,.29-.13-.06-.07-.03-.16-.03-.24Zm-5.49-2.21c-1.13,0-2.27-.83-2.28-2.26-.01-1.36,1.08-2.26,2.27-2.27,1.22,0,2.31,1.04,2.26,2.27.03,1.21-.99,2.26-2.25,2.26Z"/>
        <path class="cls-3" d="m18.44.02c-.93,0-1.85-.01-2.78-.01-.03,0-.05.03-.08.04-.1,0-.15.06-.18.15,0,.07-.01.15-.01.22,0,4.13,0,8.25,0,12.38,0,.07.01.15.02.22.05.16.16.19.31.19.87,0,1.75,0,2.62,0,.23,0,.3-.09.3-.31,0-4.2,0-8.39,0-12.59,0-.16-.05-.25-.2-.28Z"/>
      </g>
    </g>
  </g>
</svg>