<?xml version="1.0" encoding="UTF-8"?>
<svg id="Layer_1" data-name="Layer 1" xmlns="http://www.w3.org/2000/svg" viewBox="0 0 383.54 360.75">
  <defs>
    <style>
      .cls-1 {
        stroke-width: 0px;
      }
    </style>
  </defs>
  <path class="cls-1" d="m354.25,105.22c-1.52,8.81-3.87,17.36-8.58,25.06-13.07,21.37-31.94,32.85-57.13,33.63-31.61.98-63.54-22.91-67.42-59.83-4.02-38.31,23.38-68.61,56.38-73.34,37.61-5.39,70.21,19.05,76.39,56.74.07.41.24.81.36,1.21v16.52Zm-85.61,1.04h0c2.32.01,4.65.09,6.97,0,2.05-.09,2.81.78,2.78,2.81-.08,4.55.04,9.1-.04,13.65-.03,1.89.67,2.67,2.59,2.63,4.43-.08,8.87-.1,13.31,0,2.11.05,2.77-.82,2.73-2.83-.09-4.44.05-8.89-.05-13.33-.05-2.21.8-3,2.97-2.95,4.43.1,8.87-.04,13.31.05,2.04.04,2.84-.68,2.8-2.76-.1-4.44-.09-8.89,0-13.33.04-1.96-.8-2.59-2.66-2.57-4.54.07-9.08-.04-13.63.04-2.05.04-2.81-.79-2.78-2.81.08-4.55-.04-9.1.04-13.65.03-1.89-.67-2.67-2.59-2.63-4.43.08-8.87.1-13.31,0-2.11-.05-2.77.82-2.73,2.83.09,4.44-.05,8.89.05,13.33.05,2.21-.8,3-2.97,2.95-4.43-.1-8.87.04-13.31-.05-2.04-.04-2.84.68-2.8,2.76.1,4.44.09,8.89,0,13.33-.04,1.96.8,2.63,2.66,2.56,2.21-.09,4.44-.02,6.65-.02Z"/>
  <path class="cls-1" d="m205.65,277.84c29.17,0,58.34,0,87.5,0,4.22,0,4.23.02,4.24,4.17.01,4.13-.08,8.26.03,12.39.06,2.18-.75,3.03-2.95,2.98-4.75-.1-9.51.05-14.27-.06-2.31-.05-3.16.34-2.59,3.02,3.48,16.4-6.36,31.39-22.6,34.73-15.36,3.16-30.52-7.14-33.74-23.01-.81-3.98-.77-8.03.35-11.96.64-2.24-.08-2.79-2.21-2.78-11.52.06-23.04.1-34.56-.02-2.78-.03-2.78,1.05-2.31,3.25,3.47,16.18-6.61,31.35-22.88,34.57-19.7,3.9-37.63-14.35-33.4-34,.81-3.76.81-3.7-3.15-3.79-4.11-.09-8.25.43-12.33-.46-14.18-3.1-23.25-14.6-23.11-29.28.13-13.38,10.01-24.88,23.69-27.55,2.82-.55,5.7-.44,8.54-.27,2.73.16,3.2-.77,2.62-3.29-3.09-13.51-6.05-27.04-9.05-40.57-7.74-34.9-15.51-69.8-23.17-104.72-.58-2.64-1.56-3.62-4.38-3.6-17.12.13-34.24.07-51.36.07q-5.24,0-5.24-5.4c0-3.71.08-7.41-.02-11.12-.06-2.13.66-3.02,2.9-3.02,23.46.05,46.92.06,70.38-.01,2.36,0,3.01,1.11,3.45,3.14,3.67,16.74,7.52,33.44,11.06,50.2.68,3.2,1.99,3.97,5.05,3.95,27.16-.11,54.32-.02,81.48-.13,2.85-.01,4.43.71,5.36,3.56,1.51,4.63,3.77,8.98,6.3,13.14,1.34,2.19.99,2.92-1.6,2.89-7.19-.08-14.37.05-21.56-.06-2.48-.04-3.21.56-2.93,3.27,1.1,10.51,1.92,21.06,2.71,31.6.16,2.17.95,2.9,3.11,2.88,10.99-.08,21.98-.07,32.97,0,2.07.01,3.06-.53,3.18-2.8.26-4.85.77-9.69,1.19-14.54.07-.82-.11-1.84.78-2.27.93-.45,1.57.41,2.19.91,4.39,3.51,9.09,6.56,14.08,9.12,1.54.79,2.25,1.76,1.84,3.53-.21.92-.1,1.9-.22,2.84-.29,2.27.49,3.23,2.95,3.21,12.79-.09,25.61.49,38.35-.26,6.72-.4,13.53-1.9,20.09-3.98,1.05-.33,2.3-1.28,3.26-.31.91.92.09,2.23-.19,3.3-6.38,24.68-12.85,49.35-19.13,74.06-.79,3.1-2.16,3.92-5.2,3.92-57.17-.08-114.35-.06-171.52-.06-2.01,0-4.01-.05-5.96.61-3.66,1.23-6.42,4.84-6.5,8.58-.08,3.79,2.78,7.61,6.57,8.84,1.74.57,3.52.6,5.33.6,28.85,0,57.7,0,86.55,0Zm-59.7-133c-6.75,0-13.51.1-20.25-.05-2.56-.06-3.32.55-2.7,3.21,2.44,10.49,4.74,21.01,7,31.54.49,2.27,1.53,3.05,3.88,3.02,11.08-.12,22.15-.05,33.23-.05,5.33,0,5.37-.15,4.85-5.58-.89-9.46-1.75-18.92-2.37-28.4-.19-2.88-1.15-3.84-4.01-3.76-6.54.17-13.08.06-19.62.05Zm123.3,57.19c-5.7,0-11.4.07-17.09-.03-2.09-.04-2.98.6-3.16,2.82-.86,10.94-1.85,21.88-2.85,32.81-.2,2.2,1.22,2.08,2.63,2.08,9.5,0,18.99-.04,28.49.04,2.09.02,2.95-.82,3.45-2.79,2.68-10.65,5.43-21.29,8.26-31.9.62-2.31.02-3.08-2.32-3.05-5.8.08-11.61.03-17.41.03Zm-114.64,0c-5.6,0-11.2.05-16.8-.03-1.88-.03-2.72.34-2.23,2.51,2.49,10.93,4.86,21.89,7.28,32.83.29,1.3.72,2.38,2.43,2.37,9.93-.04,19.87-.02,29.8-.01,1.52,0,1.99-.69,1.85-2.2-.99-10.84-1.98-21.69-2.81-32.54-.18-2.39-1.13-3.02-3.35-2.97-5.39.12-10.78.04-16.17.04Zm56.91,0c-4.33,0-8.67,0-13,0-4.79,0-4.86.06-4.48,4.75.82,10.01,1.7,20.02,2.49,30.04.15,1.89.76,2.93,2.85,2.91,8.14-.06,16.28-.05,24.42,0,1.88,0,2.68-.85,2.76-2.66.08-1.9.23-3.8.39-5.7.72-8.64,1.4-17.29,2.2-25.92.25-2.66-.71-3.55-3.36-3.46-4.75.17-9.51.05-14.27.05Zm-47.82,104.62c0-4.73-4.41-9.18-9.15-9.24-4.7-.06-9.18,4.32-9.3,9.09-.12,4.81,4.49,9.47,9.31,9.4,4.74-.07,9.15-4.53,9.14-9.25Zm86.06,9.25c4.76-.12,9.13-4.62,9.07-9.32-.06-4.75-4.51-9.17-9.22-9.17-4.84,0-9.42,4.7-9.23,9.48.19,4.78,4.72,9.13,9.38,9.01Z"/>
</svg>