<?xml version="1.0" encoding="UTF-8"?>
<svg id="Capa_1" data-name="Capa 1" xmlns="http://www.w3.org/2000/svg" viewBox="0 0 150 150">
  <defs>
    <style>
      .cls-1 {
        fill: #acd9b2;
        stroke-width: 0px;
      }
    </style>
  </defs>
  <path class="cls-1" d="m75.08,36.3c15.95,0,31.9,0,47.85,0,4.48,0,7.7,2.4,8.62,6.42.18.78.2,1.62.2,2.43.01,19.86.01,39.73,0,59.59,0,5.59-3.4,8.96-9.01,8.96-31.82,0-63.63,0-95.45,0-5.64,0-9.06-3.43-9.06-9.08,0-19.78,0-39.55,0-59.33,0-5.59,3.4-8.99,8.99-8.99,15.95,0,31.9,0,47.85,0ZM27.26,108.46h95.68c-.18-.24-.26-.39-.37-.51-10.12-10.9-20.24-21.79-30.34-32.71-.59-.64-.88-.43-1.4.02-4.57,3.91-9.16,7.8-13.75,11.69-1.5,1.27-2.63,1.26-4.12,0-4.52-3.84-9.06-7.65-13.53-11.54-.84-.73-1.21-.59-1.9.15-9.89,10.7-19.82,21.37-29.72,32.05-.22.23-.57.39-.55.85Zm.29-66.93c.3.28.38.38.48.46,15.43,13.11,30.86,26.21,46.26,39.35.7.6,1.04.34,1.58-.12,13.65-11.62,27.31-23.22,40.96-34.83,1.84-1.57,3.68-3.14,5.69-4.86H27.55Zm-4.07,3.37v59.68c.28-.25.44-.38.58-.52,9.92-10.68,19.83-21.37,29.77-32.02.73-.78.36-1.07-.22-1.56-7.44-6.31-14.88-12.63-22.31-18.94-2.55-2.17-5.1-4.33-7.82-6.64Zm103.01,59.7v-59.65c-10.42,8.86-20.68,17.58-30.96,26.31,10.33,11.13,20.58,22.16,30.96,33.34Z"/>
</svg>